<mxfile host="app.diagrams.net" modified="2023-10-24T11:05:14.210Z" agent="Mozilla/5.0 (Windows NT 10.0; Win64; x64) AppleWebKit/537.36 (KHTML, like Gecko) Chrome/118.0.0.0 Safari/537.36" version="21.7.5" etag="ovx3soA6jAFf9DX1njdT" type="github">
  <diagram name="第 1 页" id="0vro1G2HE0-BckXaP_mI">
    <mxGraphModel>
      <root>
        <mxCell id="0" />
        <mxCell id="1" parent="0" />
      </root>
    </mxGraphModel>
  </diagram>
</mxfile>
